<svg id="mail" xmlns="http://www.w3.org/2000/svg" width="12.727" height="9.695" viewBox="0 0 12.727 9.695">
  <g id="Group_901" data-name="Group 901" transform="translate(0 0)">
    <path id="Path_376" data-name="Path 376" d="M11.609,61H1.119A1.121,1.121,0,0,0,0,62.119v7.457a1.12,1.12,0,0,0,1.119,1.119h10.49a1.12,1.12,0,0,0,1.119-1.119V62.119A1.12,1.12,0,0,0,11.609,61Zm-.154.746L6.387,66.813,1.277,61.746ZM.746,69.422V62.269L4.337,65.83Zm.527.527,3.594-3.594L6.126,67.6a.373.373,0,0,0,.526,0L7.88,66.375l3.574,3.574Zm10.709-.527L8.407,65.847l3.574-3.574Z" transform="translate(0 -61)" fill="#141414"/>
  </g>
</svg>
