<svg id="support" xmlns="http://www.w3.org/2000/svg" width="11.951" height="13.049" viewBox="0 0 11.951 13.049">
  <g id="Group_902" data-name="Group 902" transform="translate(0)">
    <path id="Path_378" data-name="Path 378" d="M28.448,5.394h-.032V4.6a4.6,4.6,0,1,0-9.205,0v.791h-.194a1.315,1.315,0,0,0-1.26,1.357V8.769A1.276,1.276,0,0,0,19,10.077h1.212a.307.307,0,0,0,.292-.321q0-.009,0-.018V5.782c0-.194-.113-.388-.291-.388h-.355V4.6a3.957,3.957,0,1,1,7.913,0v.791h-.355c-.178,0-.291.194-.291.388V9.738a.307.307,0,0,0,.272.338h.39l-.032.048A2.552,2.552,0,0,1,25.7,11.143a1.6,1.6,0,0,0-3.165.307,1.615,1.615,0,0,0,1.615,1.6,1.663,1.663,0,0,0,1.163-.5,1.421,1.421,0,0,0,.388-.775A3.2,3.2,0,0,0,28.27,10.5l.307-.452a1.1,1.1,0,0,0,1.13-1.114V6.912A1.468,1.468,0,0,0,28.448,5.394ZM19.856,9.431h-.84a.63.63,0,0,1-.614-.645q0-.009,0-.017V6.751a.67.67,0,0,1,.614-.711h.84Zm4.99,2.665a.953.953,0,0,1-.694.307.985.985,0,0,1-.969-.953.953.953,0,0,1,1.906,0h0A.856.856,0,0,1,24.847,12.1Zm4.215-3.165c0,.436-.42.5-.614.5H27.77V6.04h.678c.355,0,.614.5.614.872Z" transform="translate(-17.756)" fill="#141414"/>
  </g>
</svg>
